<svg width="114" height="24" viewBox="0 0 114 24" fill="none" xmlns="http://www.w3.org/2000/svg">
<rect width="114" height="24" fill="#2B2B2B"/>
<g id="04 - Products v1">
<rect width="1920" height="4337" transform="translate(-200 -32)" fill="white"/>
<g id="Heading Section">
<g id="Heading">
<g id="A X E L S">
<path d="M11.1152 0.261581L18.9086 20.7956C19.2067 21.6022 19.5474 22.1471 19.9307 22.4305C20.3353 22.7139 20.7079 22.8665 21.0486 22.8883V23.5422C20.5375 23.4986 19.9307 23.4768 19.228 23.4768C18.5466 23.455 17.8546 23.4441 17.1519 23.4441C16.2576 23.4441 15.4271 23.455 14.6605 23.4768C13.894 23.4768 13.2765 23.4986 12.808 23.5422V22.8883C13.894 22.8447 14.5754 22.6594 14.8522 22.3324C15.1503 21.9837 15.0864 21.2534 14.6605 20.1417L8.91131 4.25068L9.42236 3.66212L4.12028 17.8529C3.737 18.8338 3.50277 19.6512 3.4176 20.3052C3.35372 20.9591 3.40695 21.4714 3.5773 21.842C3.76894 22.2125 4.08834 22.4741 4.53551 22.6267C4.98267 22.7793 5.5363 22.8665 6.1964 22.8883V23.5422C5.55759 23.4986 4.90814 23.4768 4.24804 23.4768C3.60924 23.455 3.00238 23.4441 2.42745 23.4441C1.91641 23.4441 1.4586 23.455 1.05403 23.4768C0.670744 23.4768 0.319402 23.4986 0 23.5422V22.8883C0.447163 22.7793 0.894325 22.5068 1.34149 22.0708C1.78865 21.6349 2.21452 20.8937 2.6191 19.8474L10.0292 0.261581C10.1996 0.261581 10.3806 0.261581 10.5722 0.261581C10.7638 0.261581 10.9448 0.261581 11.1152 0.261581ZM14.4689 14.1253V14.7793H4.95073L5.27013 14.1253H14.4689Z" fill="#222222"/>
<path d="M33.3478 0.392371V1.07902C32.3257 1.07902 31.6869 1.18801 31.4314 1.40599C31.1972 1.60218 31.2291 1.95095 31.5272 2.45232L43.6964 21.2207C44.1223 21.8529 44.463 22.2779 44.7185 22.4959C44.9953 22.6921 45.3573 22.812 45.8045 22.8556V23.5422C45.4851 23.5204 45.0166 23.4986 44.3991 23.4768C43.8029 23.4332 43.1747 23.4114 42.5146 23.4114C41.6416 23.4114 40.7473 23.4332 39.8317 23.4768C38.9373 23.4986 38.2666 23.5204 37.8194 23.5422V22.8556C38.8415 22.8556 39.5016 22.7902 39.7997 22.6594C40.0978 22.5286 40.0978 22.2234 39.7997 21.7439L27.4708 2.7139C27.0662 2.08174 26.7362 1.65668 26.4807 1.43869C26.2251 1.22071 25.8525 1.10082 25.3628 1.07902V0.392371C25.7034 0.414169 26.1825 0.446867 26.8001 0.490463C27.4389 0.512261 28.0777 0.52316 28.7165 0.52316C29.6321 0.52316 30.4838 0.512261 31.2717 0.490463C32.0808 0.446867 32.7729 0.414169 33.3478 0.392371ZM34.6254 11.7057C34.6254 11.7057 34.6467 11.782 34.6893 11.9346C34.7319 12.0654 34.7745 12.2071 34.817 12.3597C34.8809 12.4905 34.9129 12.5559 34.9129 12.5559L31.2078 18.049C30.4199 19.2262 29.9941 20.1635 29.9302 20.861C29.8876 21.5368 30.1112 22.0381 30.6009 22.3651C31.112 22.6703 31.8147 22.8447 32.709 22.8883V23.5422C32.4109 23.5204 32.0595 23.5095 31.655 23.5095C31.2504 23.4877 30.8352 23.4768 30.4093 23.4768C29.9834 23.455 29.5682 23.4441 29.1636 23.4441C28.7804 23.4441 28.4503 23.4441 28.1735 23.4441C27.6199 23.4441 27.0982 23.455 26.6084 23.4768C26.1187 23.4768 25.7034 23.4986 25.3628 23.5422V22.8883C26.0654 22.7357 26.7362 22.3869 27.375 21.842C28.0138 21.2752 28.6632 20.5123 29.3233 19.5531L34.6254 11.7057ZM44.8782 0.392371V1.04632C44.2181 1.17711 43.5793 1.51499 42.9618 2.05995C42.3443 2.6049 41.7374 3.31335 41.1412 4.18529L35.9988 11.7711C35.9988 11.7711 35.9562 11.6294 35.8711 11.346C35.8072 11.0627 35.7753 10.921 35.7753 10.921L39.3206 5.72207C40.0872 4.58856 40.5343 3.68392 40.6621 3.00817C40.8112 2.33242 40.6727 1.84196 40.2469 1.53678C39.8423 1.23161 39.1929 1.06812 38.2985 1.04632V0.392371C38.7031 0.414169 39.129 0.435968 39.5761 0.457766C40.0233 0.457766 40.4598 0.468665 40.8857 0.490463C41.3328 0.490463 41.7374 0.490463 42.0994 0.490463C42.6743 0.490463 43.196 0.479564 43.6645 0.457766C44.1542 0.435968 44.5588 0.414169 44.8782 0.392371Z" fill="#222222"/>
<path d="M67.5498 0.392371C67.4646 1.22071 67.4007 2.02725 67.3581 2.81199C67.3368 3.57493 67.3262 4.16349 67.3262 4.57766C67.3262 4.99182 67.3368 5.3842 67.3581 5.75477C67.3794 6.12534 67.4007 6.43052 67.422 6.6703H66.6874C66.5383 5.2752 66.3041 4.17439 65.9847 3.36785C65.6866 2.56131 65.2288 1.99455 64.6112 1.66757C64.015 1.3188 63.1739 1.14441 62.088 1.14441H59.8841C59.2027 1.14441 58.681 1.20981 58.319 1.3406C57.9783 1.44959 57.7441 1.68937 57.6163 2.05995C57.4886 2.40872 57.4247 2.96458 57.4247 3.72752V20.2071C57.4247 20.9482 57.4886 21.5041 57.6163 21.8747C57.7441 22.2452 57.9783 22.4959 58.319 22.6267C58.681 22.7357 59.2027 22.7902 59.8841 22.7902H61.9602C63.1739 22.7902 64.1321 22.594 64.8348 22.2016C65.5588 21.8093 66.1018 21.1662 66.4638 20.2725C66.8471 19.3787 67.1345 18.158 67.3262 16.6104H68.0608C67.9969 17.2425 67.965 18.0708 67.965 19.0954C67.965 19.5313 67.9756 20.1635 67.9969 20.9918C68.0395 21.8202 68.1034 22.6703 68.1886 23.5422C67.1026 23.4986 65.8782 23.4768 64.5154 23.4768C63.1526 23.455 61.9389 23.4441 60.8743 23.4441C60.3845 23.4441 59.7563 23.4441 58.9898 23.4441C58.2232 23.4441 57.3928 23.455 56.4984 23.4768C55.6254 23.4768 54.7311 23.4877 53.8155 23.5095C52.9211 23.5095 52.0588 23.5204 51.2283 23.5422V22.8883C51.9523 22.8447 52.4953 22.7575 52.8573 22.6267C53.2192 22.4959 53.4535 22.2343 53.5599 21.842C53.6877 21.4496 53.7516 20.861 53.7516 20.0763V3.85831C53.7516 3.05177 53.6877 2.46321 53.5599 2.09264C53.4535 1.70027 53.2086 1.43869 52.8253 1.3079C52.4633 1.15531 51.931 1.06812 51.2283 1.04632V0.392371C52.0588 0.414169 52.9211 0.435968 53.8155 0.457766C54.7311 0.457766 55.6254 0.468665 56.4984 0.490463C57.3928 0.490463 58.2232 0.490463 58.9898 0.490463C59.7563 0.490463 60.3845 0.490463 60.8743 0.490463C61.8537 0.490463 62.961 0.490463 64.196 0.490463C65.4523 0.468665 66.5703 0.435968 67.5498 0.392371ZM62.2477 11.5749C62.2477 11.5749 62.2477 11.6839 62.2477 11.9019C62.2477 12.1199 62.2477 12.2289 62.2477 12.2289H56.4665C56.4665 12.2289 56.4665 12.1199 56.4665 11.9019C56.4665 11.6839 56.4665 11.5749 56.4665 11.5749H62.2477ZM63.1739 7.25886C63.0888 8.50136 63.0462 9.44959 63.0462 10.1035C63.0675 10.7575 63.0781 11.3569 63.0781 11.9019C63.0781 12.4469 63.0888 13.0463 63.1101 13.7003C63.1314 14.3542 63.1846 15.3025 63.2698 16.545H62.5351C62.4287 15.8256 62.2903 15.139 62.1199 14.485C61.9496 13.8093 61.6408 13.2643 61.1937 12.8501C60.7678 12.436 60.097 12.2289 59.1814 12.2289V11.5749C59.8628 11.5749 60.3951 11.4332 60.7784 11.1499C61.183 10.8665 61.4918 10.4959 61.7047 10.0381C61.9176 9.58038 62.0667 9.11172 62.1519 8.63215C62.2583 8.13079 62.3541 7.67302 62.4393 7.25886H63.1739Z" fill="#222222"/>
<path d="M84.3288 0.392371V1.04632C83.6049 1.06812 83.0512 1.15531 82.6679 1.3079C82.3059 1.43869 82.0611 1.70027 81.9333 2.09264C81.8055 2.46321 81.7417 3.05177 81.7417 3.85831V20.2071C81.7417 20.9482 81.7949 21.5041 81.9014 21.8747C82.0291 22.2452 82.2634 22.4959 82.6041 22.6267C82.966 22.7357 83.4771 22.7902 84.1372 22.7902H86.2133C87.1289 22.7902 87.8955 22.6594 88.513 22.3978C89.1518 22.1362 89.6841 21.7439 90.11 21.2207C90.5359 20.6975 90.8659 20.0218 91.1001 19.1935C91.3344 18.3651 91.5154 17.3951 91.6431 16.2834H92.3778C92.3139 16.9809 92.2819 17.8965 92.2819 19.03C92.2819 19.4659 92.2926 20.109 92.3139 20.9591C92.3565 21.7875 92.4203 22.6485 92.5055 23.5422C91.4195 23.4986 90.1952 23.4768 88.8324 23.4768C87.4696 23.455 86.2559 23.4441 85.1912 23.4441C84.7015 23.4441 84.0733 23.4441 83.3067 23.4441C82.5402 23.4441 81.7097 23.455 80.8154 23.4768C79.9424 23.4768 79.048 23.4877 78.1324 23.5095C77.2381 23.5095 76.3757 23.5204 75.5453 23.5422V22.8883C76.2692 22.8447 76.8122 22.7575 77.1742 22.6267C77.5362 22.4959 77.7704 22.2343 77.8769 21.842C78.0047 21.4496 78.0686 20.861 78.0686 20.0763V3.85831C78.0686 3.05177 78.0047 2.46321 77.8769 2.09264C77.7704 1.70027 77.5256 1.43869 77.1423 1.3079C76.7803 1.15531 76.248 1.06812 75.5453 1.04632V0.392371C76.035 0.414169 76.6632 0.435968 77.4297 0.457766C78.2176 0.479564 79.0587 0.490463 79.953 0.490463C80.7622 0.490463 81.5607 0.479564 82.3485 0.457766C83.1577 0.435968 83.8178 0.414169 84.3288 0.392371Z" fill="#222222"/>
<path d="M106.239 0C107.367 0 108.229 0.13079 108.826 0.392371C109.422 0.653951 109.944 0.937329 110.391 1.24251C110.646 1.3951 110.849 1.51499 110.998 1.60218C111.168 1.66757 111.328 1.70027 111.477 1.70027C111.69 1.70027 111.839 1.58038 111.924 1.3406C112.03 1.10082 112.116 0.741144 112.179 0.261581H112.914C112.893 0.653952 112.861 1.12262 112.818 1.66757C112.797 2.19074 112.776 2.88828 112.754 3.76022C112.754 4.63215 112.754 5.77657 112.754 7.19346H112.02C111.956 6.12534 111.722 5.08992 111.317 4.08719C110.934 3.08447 110.359 2.26703 109.592 1.63488C108.847 1.00272 107.889 0.686647 106.718 0.686647C105.632 0.686647 104.727 1.02452 104.003 1.70027C103.3 2.35422 102.949 3.22616 102.949 4.31608C102.949 5.2752 103.183 6.08174 103.651 6.7357C104.12 7.36785 104.759 7.9673 105.568 8.53406C106.398 9.07902 107.335 9.68937 108.379 10.3651C109.443 11.0627 110.401 11.7602 111.253 12.4578C112.105 13.1335 112.776 13.8856 113.265 14.7139C113.755 15.5422 114 16.545 114 17.7221C114 19.139 113.67 20.3161 113.01 21.2534C112.371 22.1689 111.509 22.8556 110.423 23.3134C109.337 23.7711 108.144 24 106.845 24C105.653 24 104.705 23.8692 104.003 23.6076C103.3 23.346 102.704 23.0736 102.214 22.7902C101.746 22.485 101.384 22.3324 101.128 22.3324C100.915 22.3324 100.755 22.4523 100.649 22.6921C100.564 22.9319 100.489 23.2916 100.425 23.7711H99.6908C99.7334 23.2916 99.7547 22.7357 99.7547 22.1035C99.776 21.4496 99.7866 20.5995 99.7866 19.5531C99.8079 18.5068 99.8186 17.188 99.8186 15.5967H100.553C100.638 16.9482 100.873 18.2125 101.256 19.3896C101.66 20.5668 102.267 21.515 103.076 22.2343C103.907 22.9319 105.004 23.2807 106.366 23.2807C107.09 23.2807 107.761 23.139 108.379 22.8556C108.996 22.5722 109.496 22.1253 109.88 21.515C110.263 20.9046 110.455 20.1199 110.455 19.1608C110.455 18.267 110.242 17.4823 109.816 16.8065C109.411 16.1308 108.836 15.5095 108.091 14.9428C107.367 14.3542 106.515 13.7548 105.536 13.1444C104.535 12.4905 103.598 11.8365 102.725 11.1826C101.852 10.5286 101.149 9.76567 100.617 8.89373C100.106 8.0218 99.8505 6.98638 99.8505 5.78747C99.8505 4.45777 100.149 3.36785 100.745 2.51771C101.362 1.66757 102.15 1.03542 103.108 0.621253C104.088 0.207084 105.131 0 106.239 0Z" fill="#222222"/>
</g>
</g>
</g>
</g>
</svg>
